<?xml version="1.0" encoding="UTF-8" standalone="no"?><svg xmlns="http://www.w3.org/2000/svg" xmlns:xlink="http://www.w3.org/1999/xlink" contentScriptType="application/ecmascript" contentStyleType="text/css" height="190px" preserveAspectRatio="none" style="width:384px;height:190px;" version="1.1" viewBox="0 0 384 190" width="384px" zoomAndPan="magnify"><defs><filter height="300%" id="f1jm00hkbvps87" width="300%" x="-1" y="-1"><feGaussianBlur result="blurOut" stdDeviation="2.0"/><feColorMatrix in="blurOut" result="blurOut2" type="matrix" values="0 0 0 0 0 0 0 0 0 0 0 0 0 0 0 0 0 0 .4 0"/><feOffset dx="4.0" dy="4.0" in="blurOut2" result="blurOut3"/><feBlend in="SourceGraphic" in2="blurOut3" mode="normal"/></filter></defs><g><!--MD5=[3f0ef310aaa84a542276992c5216544d]
class Car--><rect fill="#FEFECE" filter="url(#f1jm00hkbvps87)" height="48" id="Car" style="stroke: #A80036; stroke-width: 1.5;" width="53" x="159.5" y="8"/><ellipse cx="174.5" cy="24" fill="#ADD1B2" rx="11" ry="11" style="stroke: #A80036; stroke-width: 1.0;"/><path d="M177.4688,29.6406 Q176.8906,29.9375 176.25,30.0859 Q175.6094,30.2344 174.9063,30.2344 Q172.4063,30.2344 171.0859,28.5859 Q169.7656,26.9375 169.7656,23.8125 Q169.7656,20.6875 171.0859,19.0313 Q172.4063,17.375 174.9063,17.375 Q175.6094,17.375 176.2578,17.5313 Q176.9063,17.6875 177.4688,17.9844 L177.4688,20.7031 Q176.8438,20.125 176.25,19.8516 Q175.6563,19.5781 175.0313,19.5781 Q173.6875,19.5781 173,20.6484 Q172.3125,21.7188 172.3125,23.8125 Q172.3125,25.9063 173,26.9766 Q173.6875,28.0469 175.0313,28.0469 Q175.6563,28.0469 176.25,27.7734 Q176.8438,27.5 177.4688,26.9219 L177.4688,29.6406 Z "/><text fill="#000000" font-family="sans-serif" font-size="12" lengthAdjust="spacingAndGlyphs" textLength="21" x="188.5" y="28.1543">Car</text><line style="stroke: #A80036; stroke-width: 1.5;" x1="160.5" x2="211.5" y1="40" y2="40"/><line style="stroke: #A80036; stroke-width: 1.5;" x1="160.5" x2="211.5" y1="48" y2="48"/><!--MD5=[eee9d396a8aca12c6c152931e8dc1ab6]
class Driver--><rect fill="#FEFECE" filter="url(#f1jm00hkbvps87)" height="48" id="Driver" style="stroke: #A80036; stroke-width: 1.5;" width="68" x="6" y="8"/><ellipse cx="21" cy="24" fill="#ADD1B2" rx="11" ry="11" style="stroke: #A80036; stroke-width: 1.0;"/><path d="M23.9688,29.6406 Q23.3906,29.9375 22.75,30.0859 Q22.1094,30.2344 21.4063,30.2344 Q18.9063,30.2344 17.5859,28.5859 Q16.2656,26.9375 16.2656,23.8125 Q16.2656,20.6875 17.5859,19.0313 Q18.9063,17.375 21.4063,17.375 Q22.1094,17.375 22.7578,17.5313 Q23.4063,17.6875 23.9688,17.9844 L23.9688,20.7031 Q23.3438,20.125 22.75,19.8516 Q22.1563,19.5781 21.5313,19.5781 Q20.1875,19.5781 19.5,20.6484 Q18.8125,21.7188 18.8125,23.8125 Q18.8125,25.9063 19.5,26.9766 Q20.1875,28.0469 21.5313,28.0469 Q22.1563,28.0469 22.75,27.7734 Q23.3438,27.5 23.9688,26.9219 L23.9688,29.6406 Z "/><text fill="#000000" font-family="sans-serif" font-size="12" lengthAdjust="spacingAndGlyphs" textLength="36" x="35" y="28.1543">Driver</text><line style="stroke: #A80036; stroke-width: 1.5;" x1="7" x2="73" y1="40" y2="40"/><line style="stroke: #A80036; stroke-width: 1.5;" x1="7" x2="73" y1="48" y2="48"/><!--MD5=[63ed6a0a2dfd613875880437a5e2b06e]
class Wheel--><rect fill="#FEFECE" filter="url(#f1jm00hkbvps87)" height="48" id="Wheel" style="stroke: #A80036; stroke-width: 1.5;" width="70" x="303" y="8"/><ellipse cx="318" cy="24" fill="#ADD1B2" rx="11" ry="11" style="stroke: #A80036; stroke-width: 1.0;"/><path d="M320.9688,29.6406 Q320.3906,29.9375 319.75,30.0859 Q319.1094,30.2344 318.4063,30.2344 Q315.9063,30.2344 314.5859,28.5859 Q313.2656,26.9375 313.2656,23.8125 Q313.2656,20.6875 314.5859,19.0313 Q315.9063,17.375 318.4063,17.375 Q319.1094,17.375 319.7578,17.5313 Q320.4063,17.6875 320.9688,17.9844 L320.9688,20.7031 Q320.3438,20.125 319.75,19.8516 Q319.1563,19.5781 318.5313,19.5781 Q317.1875,19.5781 316.5,20.6484 Q315.8125,21.7188 315.8125,23.8125 Q315.8125,25.9063 316.5,26.9766 Q317.1875,28.0469 318.5313,28.0469 Q319.1563,28.0469 319.75,27.7734 Q320.3438,27.5 320.9688,26.9219 L320.9688,29.6406 Z "/><text fill="#000000" font-family="sans-serif" font-size="12" lengthAdjust="spacingAndGlyphs" textLength="38" x="332" y="28.1543">Wheel</text><line style="stroke: #A80036; stroke-width: 1.5;" x1="304" x2="372" y1="40" y2="40"/><line style="stroke: #A80036; stroke-width: 1.5;" x1="304" x2="372" y1="48" y2="48"/><!--MD5=[09ce52be0ee7de43c61b6e2d59bf108b]
class Person--><rect fill="#FEFECE" filter="url(#f1jm00hkbvps87)" height="48" id="Person" style="stroke: #A80036; stroke-width: 1.5;" width="76" x="148" y="131"/><ellipse cx="163" cy="147" fill="#ADD1B2" rx="11" ry="11" style="stroke: #A80036; stroke-width: 1.0;"/><path d="M165.9688,152.6406 Q165.3906,152.9375 164.75,153.0859 Q164.1094,153.2344 163.4063,153.2344 Q160.9063,153.2344 159.5859,151.5859 Q158.2656,149.9375 158.2656,146.8125 Q158.2656,143.6875 159.5859,142.0313 Q160.9063,140.375 163.4063,140.375 Q164.1094,140.375 164.7578,140.5313 Q165.4063,140.6875 165.9688,140.9844 L165.9688,143.7031 Q165.3438,143.125 164.75,142.8516 Q164.1563,142.5781 163.5313,142.5781 Q162.1875,142.5781 161.5,143.6484 Q160.8125,144.7188 160.8125,146.8125 Q160.8125,148.9063 161.5,149.9766 Q162.1875,151.0469 163.5313,151.0469 Q164.1563,151.0469 164.75,150.7734 Q165.3438,150.5 165.9688,149.9219 L165.9688,152.6406 Z "/><text fill="#000000" font-family="sans-serif" font-size="12" lengthAdjust="spacingAndGlyphs" textLength="44" x="177" y="151.1543">Person</text><line style="stroke: #A80036; stroke-width: 1.5;" x1="149" x2="223" y1="163" y2="163"/><line style="stroke: #A80036; stroke-width: 1.5;" x1="149" x2="223" y1="171" y2="171"/><!--MD5=[85884a73f707af3ae230d559cad4fc2c]
link Driver to Car--><path d="M74.23,32 C100.19,32 135.36,32 159.27,32 " fill="none" id="Driver-Car" style="stroke: #666666; stroke-width: 1.0;"/><text fill="#666666" font-family="sans-serif" font-size="12" lengthAdjust="spacingAndGlyphs" textLength="37" x="92.25" y="26.1387">drives</text><polygon fill="#666666" points="132.25,19.9844,138.25,22.9844,132.25,25.9844,132.25,19.9844" style="stroke: #666666; stroke-width: 1.0;"/><!--MD5=[6190aadcc963d15c02367c0199cc5452]
reverse link Car to Wheel--><path d="M226.07,32 C249.93,32 279.94,32 302.87,32 " fill="none" id="Car&lt;-Wheel" style="stroke: #666666; stroke-width: 1.0;"/><polygon fill="#666666" points="212.82,32,218.82,36,224.82,32,218.82,28,212.82,32" style="stroke: #666666; stroke-width: 1.0;"/><text fill="#666666" font-family="sans-serif" font-size="12" lengthAdjust="spacingAndGlyphs" textLength="42" x="230.75" y="26.1387">have 4</text><polygon fill="#666666" points="275.75,19.9844,281.75,22.9844,275.75,25.9844,275.75,19.9844" style="stroke: #666666; stroke-width: 1.0;"/><!--MD5=[2800f28b8e2a8d078fc1fa2e2aa6715e]
link Car to Person--><path d="M186,56.04 C186,77.44 186,109.13 186,130.63 " fill="none" id="Car-Person" style="stroke: #666666; stroke-width: 1.0;"/><polygon fill="#666666" points="199,96,202,90,205,96,199,96" style="stroke: #666666; stroke-width: 1.0;"/><text fill="#666666" font-family="sans-serif" font-size="12" lengthAdjust="spacingAndGlyphs" textLength="32" x="187" y="110.1387">owns</text><!--MD5=[8a47cdb1d19eb7dec23e16873e102f68]
@startuml





skinparam defaultTextAlignment center

skinparam wrapWidth 200
skinparam maxMessageSize 150

skinparam rectangle {
    StereotypeFontSize 12
    shadowing false
}

skinparam database {
    StereotypeFontSize 12
    shadowing false
}

skinparam Arrow {
    Color #666666
    FontColor #666666
    FontSize 12
}

skinparam rectangle<<boundary>> {
    Shadowing false
    StereotypeFontSize 0
    FontColor #444444
    BorderColor #444444
    BorderStyle dashed
}






















skinparam rectangle<<person>> {
    StereotypeFontColor #FFFFFF
    FontColor #FFFFFF
    BackgroundColor #08427B
    BorderColor #073B6F
}

skinparam rectangle<<external_person>> {
    StereotypeFontColor #FFFFFF
    FontColor #FFFFFF
    BackgroundColor #686868
    BorderColor #8A8A8A
}

skinparam rectangle<<system>> {
    StereotypeFontColor #FFFFFF
    FontColor #FFFFFF
    BackgroundColor #1168BD
    BorderColor #3C7FC0
}

skinparam rectangle<<external_system>> {
    StereotypeFontColor #FFFFFF
    FontColor #FFFFFF
    BackgroundColor #999999
    BorderColor #8A8A8A
}

skinparam database<<system>> {
    StereotypeFontColor #FFFFFF
    FontColor #FFFFFF
    BackgroundColor #1168BD
    BorderColor #3C7FC0
}

skinparam database<<external_system>> {
    StereotypeFontColor #FFFFFF
    FontColor #FFFFFF
    BackgroundColor #999999
    BorderColor #8A8A8A
}












class Car

Driver - Car : drives >
Car *- Wheel : have 4 >
Car - - Person : < owns
@enduml

PlantUML version 1.2019.12(Sun Nov 03 05:24:54 PET 2019)
(GPL source distribution)
Java Runtime: OpenJDK Runtime Environment
JVM: OpenJDK 64-Bit Server VM
Java Version: 1.8.0_232-b09
Operating System: Linux
Default Encoding: ANSI_X3.4-1968
Language: en
Country: US
--></g></svg>